<?xml version="1.0" standalone="no"?>
<!DOCTYPE svg PUBLIC "-//W3C//DTD SVG 20010904//EN"
 "http://www.w3.org/TR/2001/REC-SVG-20010904/DTD/svg10.dtd">
<svg version="1.0" xmlns="http://www.w3.org/2000/svg"
 width="640.000000pt" height="640.000000pt" viewBox="0 0 640.000000 640.000000"
 preserveAspectRatio="xMidYMid meet">

<g transform="translate(0.000000,640.000000) scale(0.100000,-0.100000)"
fill="#000000" stroke="none">
<path d="M1555 4107 c-40 -13 -125 -68 -152 -98 -43 -47 -94 -146 -124 -238
-38 -118 -52 -256 -43 -431 12 -241 72 -410 188 -526 53 -52 73 -65 130 -83
246 -76 357 52 373 432 l6 147 -37 0 -38 0 7 -52 c4 -28 7 -97 7 -152 -1 -223
-90 -351 -220 -316 -68 18 -107 80 -144 225 -21 83 -23 111 -23 375 0 266 2
291 24 380 67 272 208 364 295 192 26 -51 56 -172 56 -224 0 -42 10 -78 21
-78 5 0 9 104 9 230 l0 231 -152 -2 c-84 -1 -166 -6 -183 -12z"/>
<path d="M1920 4104 c0 -3 7 -30 15 -59 14 -46 15 -134 13 -642 -3 -530 -5
-592 -21 -632 -9 -24 -17 -45 -17 -47 0 -2 70 -4 155 -4 85 0 155 4 155 9 0 5
-7 28 -17 52 -14 40 -16 110 -14 687 l3 642 -136 0 c-75 0 -136 -3 -136 -6z"/>
<path d="M3875 4093 c34 -82 35 -103 35 -674 0 -538 -1 -570 -20 -631 -11 -34
-20 -64 -20 -65 0 -2 149 -3 330 -3 l330 0 0 225 c0 124 -3 225 -7 225 -5 0
-19 -46 -31 -103 -24 -105 -52 -165 -94 -204 -38 -36 -108 -62 -178 -65 l-65
-3 -3 338 -2 337 35 0 c85 0 159 -73 180 -178 6 -31 17 -58 23 -60 9 -3 12 65
12 277 0 243 -2 281 -15 281 -11 0 -15 -11 -15 -37 0 -41 -30 -116 -58 -146
-24 -27 -82 -54 -122 -58 l-35 -4 -3 249 -2 249 72 -6 c147 -11 221 -73 269
-228 11 -34 19 -81 19 -105 0 -24 5 -44 10 -44 6 0 10 82 10 225 l0 225 -331
0 c-311 0 -331 -1 -324 -17z"/>
<path d="M3070 3976 c0 -3 8 -25 18 -48 16 -39 17 -95 17 -648 0 -555 -1 -608
-17 -644 -10 -21 -18 -40 -18 -42 0 -9 424 -3 469 7 211 45 327 244 306 528
-14 204 -91 306 -244 328 l-54 8 66 43 c100 64 127 91 153 147 57 122 7 243
-123 295 -54 22 -75 24 -315 28 -142 2 -258 2 -258 -2z m441 -91 c38 -20 59
-68 59 -138 0 -64 -14 -108 -50 -162 -31 -45 -159 -175 -172 -175 -10 0 -9
478 0 494 7 13 127 -1 163 -19z m9 -512 c61 -36 89 -142 90 -338 0 -183 -24
-274 -88 -330 -32 -29 -91 -47 -135 -43 -32 3 -32 4 -38 68 -10 104 -10 409 1
482 21 148 87 210 170 161z"/>
<path d="M2643 3895 c-56 -24 -83 -114 -45 -148 42 -38 102 -31 148 19 17 18
20 30 15 56 -8 40 -43 51 -60 19 -12 -22 -5 -51 13 -51 6 -1 0 -10 -13 -21
-16 -13 -31 -17 -45 -13 -42 13 -48 56 -15 99 20 24 26 26 68 20 40 -6 44 -5
31 8 -23 22 -62 27 -97 12z"/>
<path d="M2318 3533 c14 -33 17 -98 22 -513 5 -473 5 -475 29 -528 43 -95 128
-148 256 -159 147 -12 265 57 316 183 23 58 24 64 29 529 4 350 8 476 18 492
6 12 12 24 12 27 0 3 -63 6 -140 6 l-141 0 18 -32 c16 -30 18 -72 21 -425 4
-413 -6 -611 -33 -663 -27 -51 -101 -63 -138 -22 -37 43 -42 112 -42 597 0
421 2 474 17 508 l17 37 -139 0 -139 0 17 -37z"/>
<path d="M4766 2775 c-9 -26 -7 -32 5 -12 6 10 9 21 6 23 -2 3 -7 -2 -11 -11z"/>
<path d="M4354 2455 c-30 -12 -54 -51 -54 -86 0 -28 26 -75 45 -83 34 -13 85
-6 105 14 29 29 28 109 -2 137 -31 27 -59 33 -94 18z m65 -39 c7 -8 11 -34 9
-58 -3 -38 -6 -43 -29 -46 -34 -4 -59 21 -59 58 0 50 52 79 79 46z"/>
<path d="M3440 2370 l0 -90 54 0 c47 0 57 4 75 26 30 38 28 98 -4 129 -19 20
-34 25 -75 25 l-50 0 0 -90z m91 50 c14 -8 19 -21 19 -48 0 -45 -14 -62 -52
-62 -27 0 -28 2 -28 53 0 69 14 82 61 57z"/>
<path d="M3685 2443 c-9 -24 -55 -156 -55 -160 0 -2 8 -3 19 -3 10 0 21 9 24
20 8 30 77 24 77 -6 0 -8 9 -14 20 -14 26 0 25 1 -9 96 -21 59 -34 80 -49 82
-11 2 -22 -4 -27 -15z m40 -73 c5 -21 2 -26 -15 -27 -16 -1 -20 2 -16 13 3 9
6 25 6 37 0 27 16 11 25 -23z"/>
<path d="M3925 2370 c0 -87 1 -90 22 -90 19 0 23 6 23 30 0 27 3 30 29 30 39
0 61 24 61 64 0 39 -28 56 -93 56 l-42 0 0 -90z m93 33 c3 -19 -1 -23 -22 -23
-21 0 -26 5 -26 24 0 32 44 31 48 -1z"/>
<path d="M4110 2370 c0 -83 1 -90 20 -90 16 0 20 7 20 35 0 32 2 35 30 35 25
0 30 -4 36 -35 4 -24 12 -35 24 -35 15 0 16 6 10 42 -5 23 -4 52 1 65 18 48
-12 73 -90 73 l-51 0 0 -90z m88 54 c13 -4 22 -14 22 -25 0 -15 -7 -19 -35
-19 -31 0 -35 3 -35 25 0 26 9 29 48 19z"/>
<path d="M4535 2444 c-9 -9 -15 -28 -13 -43 2 -20 12 -29 48 -42 54 -20 67
-49 22 -49 -17 0 -32 6 -36 15 -8 22 -36 18 -36 -5 0 -24 28 -40 74 -40 40 0
66 21 66 54 0 30 -19 45 -64 53 -26 4 -36 11 -36 24 0 23 21 24 60 4 28 -15
30 -14 30 4 0 39 -83 57 -115 25z"/>
<path d="M4760 2458 c0 -2 -13 -41 -30 -88 -16 -47 -30 -86 -30 -87 0 -2 9 -3
19 -3 11 0 23 9 26 20 5 14 15 20 37 20 21 0 31 -6 35 -20 6 -22 43 -28 42 -7
0 6 -12 46 -27 87 -22 60 -31 76 -49 78 -13 2 -23 2 -23 0z m39 -105 c1 -7 -8
-13 -19 -13 -24 0 -23 -2 -8 41 12 34 12 34 19 9 4 -14 7 -31 8 -37z"/>
<path d="M5018 2453 c7 -3 16 -2 19 1 4 3 -2 6 -13 5 -11 0 -14 -3 -6 -6z"/>
<path d="M5121 2434 c0 -11 3 -14 6 -6 3 7 2 16 -1 19 -3 4 -6 -2 -5 -13z"/>
<path d="M5036 2157 c3 -10 9 -15 12 -12 3 3 0 11 -7 18 -10 9 -11 8 -5 -6z"/>
<path d="M4850 2126 c0 -8 4 -17 8 -20 4 -2 8 4 8 15 0 10 -4 19 -8 19 -4 0
-8 -6 -8 -14z"/>
<path d="M4812 2075 c0 -16 2 -22 5 -12 2 9 2 23 0 30 -3 6 -5 -1 -5 -18z"/>
</g>
</svg>
